G04 start of page 3 for group 1 idx 3 *
G04 Title: (unknown), bottom *
G04 Creator: pcb.exe 20130104 *
G04 CreationDate: 31-Mar-17 10:33:27 UTC *
G04 Format: Gerber/RS-274X *
G04 PCB-Dimensions (mil): 1850.39 2755.91 *
G04 PCB-Coordinate-Origin: lower left *
%MOIN*%
%FSLAX25Y25*%
%LNBOTTOM*%
%ADD19C,0.0280*%
%ADD18C,0.0800*%
%ADD17C,0.0600*%
%ADD16C,0.0150*%
%ADD15C,0.0250*%
G54D15*X14764Y213276D02*X14299Y213740D01*
X13780Y213220D02*X14299Y213740D01*
X14764Y213276D02*X14457Y213583D01*
X14764Y125000D02*Y212236D01*
X13780Y213220D01*
Y59260D02*X14299Y58740D01*
X83661Y58378D02*X83299Y58740D01*
X107079Y121614D02*X18150D01*
X14764Y125000D01*
X80708Y25591D02*X13780D01*
X13780Y25591D01*
Y58071D01*
X14374Y58665D01*
X83661Y212236D02*X83299Y212598D01*
G54D16*X105394Y188976D02*X105827Y189409D01*
G54D15*X82988Y212909D02*Y156185D01*
X87598Y151575D01*
X142717D01*
X99409Y232283D02*X70866D01*
Y251970D01*
X71850Y252954D01*
X142717Y151575D02*X148622Y145669D01*
Y123071D01*
X150079Y121614D01*
Y192614D02*Y240669D01*
X138780Y251969D01*
X148622Y122047D02*X144685D01*
X143701Y121063D01*
X138780Y251969D02*X92520D01*
X91535Y252954D01*
X107079Y192614D02*Y224614D01*
X99409Y232283D01*
X107283Y121614D02*X121496D01*
X125000Y118110D01*
X82984Y59055D02*X100394D01*
Y25592D01*
X100393Y25591D01*
X125000Y25592D02*X125000Y25591D01*
X125000Y118110D02*Y25592D01*
X143701Y121063D02*Y26575D01*
X144685Y25591D01*
G54D17*X83299Y58740D03*
X14299D03*
X83299Y213740D03*
X14299D03*
G54D18*X100393Y25591D03*
X80708D03*
X144685D03*
X125000D03*
X91535Y252954D03*
X71850D03*
G54D17*X107079Y192614D03*
Y121614D03*
X150079Y192614D03*
Y121614D03*
G54D19*G54D16*G54D19*M02*
